Oxygen-Italic.ufo
<glyph name="parenleft" format="1">
  <advance width="576"/>
  <unicode hex="0028"/>
  <outline>
    <contour>
      <point x="209" y="636" type="curve" smooth="yes"/>
      <point x="254" y="954"/>
      <point x="386" y="1241"/>
      <point x="565" y="1510" type="curve"/>
      <point x="703" y="1510" type="line"/>
      <point x="531" y="1243"/>
      <point x="412" y="951"/>
      <point x="369" y="642" type="curve" smooth="yes"/>
      <point x="358" y="566"/>
      <point x="353" y="486"/>
      <point x="353" y="406" type="curve" smooth="yes"/>
      <point x="353" y="188"/>
      <point x="392" y="-34"/>
      <point x="462" y="-218" type="curve"/>
      <point x="325" y="-218" type="line"/>
      <point x="248" y="-32"/>
      <point x="195" y="194"/>
      <point x="195" y="429" type="curve" smooth="yes"/>
      <point x="195" y="498"/>
      <point x="199" y="567"/>
    </contour>
  </outline>
</glyph>
<glyph name="asterisk" format="1">
  <advance width="1006"/>
  <unicode hex="002A"/>
  <outline>
    <contour>
      <point x="782" y="1489" type="line"/>
      <point x="703" y="1076" type="line"/>
      <point x="1034" y="1250" type="line"/>
      <point x="1081" y="1133" type="line"/>
      <point x="729" y="1001" type="line" smooth="yes"/>
      <point x="728" y="1001"/>
      <point x="931" y="670"/>
      <point x="931" y="670" type="curve"/>
      <point x="932" y="670"/>
      <point x="801" y="596"/>
      <point x="801" y="596" type="curve"/>
      <point x="631" y="955" type="line"/>
      <point x="366" y="597" type="line"/>
      <point x="261" y="677" type="line"/>
      <point x="548" y="1005" type="line"/>
      <point x="239" y="1133" type="line"/>
      <point x="304" y="1251" type="line"/>
      <point x="604" y="1076" type="line"/>
      <point x="631" y="1489" type="line"/>
    </contour>
  </outline>
</glyph>
<glyph name="comma" format="1">
  <advance width="480"/>
  <unicode hex="002C"/>
  <outline>
    <contour>
      <point x="385" y="230" type="line"/>
      <point x="190" y="-292" type="line"/>
      <point x="89" y="-292" type="line"/>
      <point x="181" y="230" type="line"/>
    </contour>
  </outline>
</glyph>
<glyph name="period" format="1">
  <advance width="469"/>
  <unicode hex="002E"/>
  <outline>
    <contour>
      <point x="286" y="252" type="curve" smooth="yes"/>
      <point x="362" y="252"/>
      <point x="396" y="199"/>
      <point x="396" y="141" type="curve" smooth="yes"/>
      <point x="396" y="61"/>
      <point x="339" y="-12"/>
      <point x="249" y="-12" type="curve" smooth="yes"/>
      <point x="174" y="-12"/>
      <point x="139" y="41"/>
      <point x="139" y="100" type="curve" smooth="yes"/>
      <point x="139" y="180"/>
      <point x="196" y="252"/>
    </contour>
  </outline>
</glyph>
<glyph name="four" format="1">
  <advance width="1133"/>
  <unicode hex="0034"/>
  <outline>
    <contour>
      <point x="911" y="1269" type="line"/>
      <point x="340" y="516" type="line"/>
      <point x="805" y="516" type="line"/>
    </contour>
    <contour>
      <point x="1104" y="371" type="line"/>
      <point x="946" y="371" type="line"/>
      <point x="894" y="0" type="line"/>
      <point x="732" y="0" type="line"/>
      <point x="785" y="371" type="line"/>
      <point x="156" y="371" type="line"/>
      <point x="177" y="524" type="line"/>
      <point x="925" y="1496" type="line"/>
      <point x="1104" y="1496" type="line"/>
      <point x="966" y="516" type="line"/>
      <point x="1137" y="516" type="line"/>
    </contour>
  </outline>
</glyph>
<glyph name="seven" format="1">
  <advance width="979"/>
  <unicode hex="0037"/>
  <outline>
    <contour>
      <point x="246" y="0" type="line"/>
      <point x="912" y="1341" type="line"/>
      <point x="284" y="1341" type="line"/>
      <point x="316" y="1496" type="line"/>
      <point x="1123" y="1496" type="line"/>
      <point x="1104" y="1360" type="line"/>
      <point x="415" y="0" type="line"/>
    </contour>
  </outline>
</glyph>
<glyph name="eight" format="1">
  <advance width="1112"/>
  <unicode hex="0038"/>
  <outline>
    <contour>
      <point x="755" y="1373" type="curve" smooth="yes"/>
      <point x="600" y="1373"/>
      <point x="456" y="1281"/>
      <point x="456" y="1102" type="curve" smooth="yes"/>
      <point x="456" y="972"/>
      <point x="536" y="890"/>
      <point x="682" y="853" type="curve"/>
      <point x="858" y="894"/>
      <point x="961" y="993"/>
      <point x="983" y="1152" type="curve" smooth="yes"/>
      <point x="985" y="1163"/>
      <point x="985" y="1174"/>
      <point x="985" y="1185" type="curve" smooth="yes"/>
      <point x="985" y="1308"/>
      <point x="882" y="1373"/>
    </contour>
    <contour>
      <point x="580" y="129" type="curve" smooth="yes"/>
      <point x="756" y="129"/>
      <point x="910" y="244"/>
      <point x="910" y="440" type="curve" smooth="yes"/>
      <point x="910" y="579"/>
      <point x="807" y="666"/>
      <point x="661" y="703" type="curve"/>
      <point x="488" y="662"/>
      <point x="347" y="562"/>
      <point x="324" y="397" type="curve" smooth="yes"/>
      <point x="322" y="382"/>
      <point x="321" y="369"/>
      <point x="321" y="355" type="curve" smooth="yes"/>
      <point x="321" y="213"/>
      <point x="428" y="129"/>
    </contour>
    <contour>
      <point x="1079" y="454" type="curve" smooth="yes"/>
      <point x="1079" y="140"/>
      <point x="827" y="-23"/>
      <point x="559" y="-23" type="curve" smooth="yes"/>
      <point x="328" y="-23"/>
      <point x="148" y="96"/>
      <point x="148" y="321" type="curve" smooth="yes"/>
      <point x="148" y="342"/>
      <point x="150" y="363"/>
      <point x="153" y="385" type="curve" smooth="yes"/>
      <point x="180" y="577"/>
      <point x="311" y="724"/>
      <point x="505" y="788" type="curve"/>
      <point x="368" y="842"/>
      <point x="285" y="938"/>
      <point x="285" y="1085" type="curve" smooth="yes"/>
      <point x="285" y="1105"/>
      <point x="287" y="1126"/>
      <point x="290" y="1148" type="curve" smooth="yes"/>
      <point x="324" y="1389"/>
      <point x="526" y="1525"/>
      <point x="776" y="1525" type="curve" smooth="yes"/>
      <point x="1003" y="1525"/>
      <point x="1157" y="1412"/>
      <point x="1157" y="1210" type="curve" smooth="yes"/>
      <point x="1157" y="1190"/>
      <point x="1155" y="1170"/>
      <point x="1152" y="1148" type="curve" smooth="yes"/>
      <point x="1126" y="966"/>
      <point x="1014" y="849"/>
      <point x="856" y="788" type="curve"/>
      <point x="997" y="732"/>
      <point x="1079" y="612"/>
    </contour>
  </outline>
</glyph>
<glyph name="question" format="1">
  <advance width="817"/>
  <unicode hex="003F"/>
  <outline>
    <contour>
      <point x="243" y="100" type="curve" smooth="yes"/>
      <point x="243" y="180"/>
      <point x="301" y="252"/>
      <point x="390" y="252" type="curve" smooth="yes"/>
      <point x="466" y="252"/>
      <point x="500" y="199"/>
      <point x="500" y="141" type="curve" smooth="yes"/>
      <point x="500" y="61"/>
      <point x="443" y="-12"/>
      <point x="353" y="-12" type="curve" smooth="yes"/>
      <point x="278" y="-12"/>
      <point x="243" y="41"/>
    </contour>
    <contour>
      <point x="444" y="435" type="curve"/>
      <point x="360" y="435" type="line"/>
      <point x="393" y="668"/>
      <point x="709" y="989"/>
      <point x="737" y="1186" type="curve" smooth="yes"/>
      <point x="739" y="1198"/>
      <point x="739" y="1209"/>
      <point x="739" y="1220" type="curve" smooth="yes"/>
      <point x="739" y="1327"/>
      <point x="664" y="1373"/>
      <point x="550" y="1373" type="curve" smooth="yes"/>
      <point x="436" y="1373"/>
      <point x="344" y="1322"/>
      <point x="294" y="1292" type="curve"/>
      <point x="271" y="1427" type="line"/>
      <point x="366" y="1498"/>
      <point x="493" y="1524"/>
      <point x="598" y="1524" type="curve" smooth="yes"/>
      <point x="778" y="1524"/>
      <point x="899" y="1429"/>
      <point x="899" y="1257" type="curve" smooth="yes"/>
      <point x="899" y="1239"/>
      <point x="898" y="1220"/>
      <point x="895" y="1200" type="curve" smooth="yes"/>
      <point x="857" y="927"/>
      <point x="634" y="770"/>
    </contour>
  </outline>
</glyph>
<glyph name="H" format="1">
  <advance width="1393"/>
  <unicode hex="0048"/>
  <outline>
    <contour>
      <point x="1178" y="701" type="line"/>
      <point x="400" y="701" type="line"/>
      <point x="301" y="0" type="line"/>
      <point x="142" y="0" type="line"/>
      <point x="350" y="1492" type="line"/>
      <point x="511" y="1492" type="line"/>
      <point x="419" y="843" type="line"/>
      <point x="1198" y="843" type="line"/>
      <point x="1289" y="1492" type="line"/>
      <point x="1449" y="1492" type="line"/>
      <point x="1240" y="0" type="line"/>
      <point x="1079" y="0" type="line"/>
    </contour>
    <contour>
      <point x="697" y="1489" type="move" name="top"/>
    </contour>
    <contour>
      <point x="697" y="745" type="move" name="center"/>
    </contour>
  </outline>
</glyph>
<glyph name="J" format="1">
  <advance width="521"/>
  <unicode hex="004A"/>
  <outline>
    <contour>
      <point x="404" y="247" type="line" smooth="yes"/>
      <point x="358" y="-77"/>
      <point x="303" y="-204"/>
      <point x="-48" y="-204" type="curve"/>
      <point x="-48" y="-72" type="line"/>
      <point x="174" y="-72"/>
      <point x="208" y="-2"/>
      <point x="234" y="185" type="curve" smooth="yes"/>
      <point x="419" y="1492" type="line"/>
      <point x="579" y="1492" type="line"/>
    </contour>
    <contour>
      <point x="261" y="1489" type="move" name="top"/>
    </contour>
  </outline>
</glyph>
<glyph name="L" format="1">
  <advance width="934"/>
  <unicode hex="004C"/>
  <outline>
    <contour>
      <point x="350" y="1492" type="line"/>
      <point x="514" y="1492" type="line"/>
      <point x="322" y="145" type="line"/>
      <point x="942" y="145" type="line"/>
      <point x="911" y="0" type="line"/>
      <point x="142" y="0" type="line"/>
    </contour>
    <contour>
      <point x="467" y="1489" type="move" name="top"/>
    </contour>
    <contour>
      <point x="467" y="0" type="move" name="bottom"/>
    </contour>
  </outline>
</glyph>
<glyph name="M" format="1">
  <advance width="1686"/>
  <unicode hex="004D"/>
  <outline>
    <contour>
      <point x="461" y="1208" type="line"/>
      <point x="291" y="0" type="line"/>
      <point x="142" y="0" type="line"/>
      <point x="350" y="1492" type="line"/>
      <point x="527" y="1492" type="line"/>
      <point x="890" y="337" type="line"/>
      <point x="1576" y="1492" type="line"/>
      <point x="1742" y="1492" type="line"/>
      <point x="1533" y="0" type="line"/>
      <point x="1384" y="0" type="line"/>
      <point x="1552" y="1203" type="line"/>
      <point x="958" y="193" type="line"/>
      <point x="776" y="193" type="line"/>
    </contour>
  </outline>
</glyph>
<glyph name="R" format="1">
  <advance width="1264"/>
  <unicode hex="0052"/>
  <outline>
    <contour>
      <point x="1056" y="820"/>
      <point x="1143" y="973"/>
      <point x="1143" y="1150" type="curve" smooth="yes"/>
      <point x="1143" y="1277"/>
      <point x="1020.02454465" y="1360.0"/>
      <point x="829" y="1360" type="curve" smooth="yes"/>
      <point x="492" y="1360" type="line"/>
      <point x="419" y="836" type="line"/>
      <point x="529" y="825"/>
      <point x="638" y="820"/>
      <point x="716" y="820" type="curve" smooth="yes"/>
    </contour>
    <contour>
      <point x="531" y="700"/>
      <point x="417" y="718"/>
      <point x="409" y="718" type="curve"/>
      <point x="301" y="0" type="line"/>
      <point x="142" y="0" type="line"/>
      <point x="350" y="1491" type="line"/>
      <point x="462" y="1491"/>
      <point x="695" y="1491"/>
      <point x="696" y="1491" type="curve" smooth="yes"/>
      <point x="1019.85105786" y="1491.0"/>
      <point x="1296.0" y="1438.27661195"/>
      <point x="1296" y="1150" type="curve" smooth="yes"/>
      <point x="1296" y="1005"/>
      <point x="1240" y="799"/>
      <point x="960" y="731" type="curve"/>
      <point x="995" y="508"/>
      <point x="1132" y="160"/>
      <point x="1245" y="0" type="curve"/>
      <point x="1071" y="0" type="line"/>
      <point x="953" y="188"/>
      <point x="883" y="390"/>
      <point x="812" y="700" type="curve"/>
    </contour>
    <contour>
      <point x="632" y="1489" type="move" name="top"/>
    </contour>
    <contour>
      <point x="632" y="0" type="move" name="bottom"/>
    </contour>
  </outline>
</glyph>
<glyph name="U" format="1">
  <advance width="1317"/>
  <unicode hex="0055"/>
  <outline>
    <contour>
      <point x="332" y="1492" type="line"/>
      <point x="492" y="1492" type="line"/>
      <point x="357" y="535" type="line" smooth="yes"/>
      <point x="351" y="490"/>
      <point x="348" y="448"/>
      <point x="348" y="412" type="curve" smooth="yes"/>
      <point x="348" y="207"/>
      <point x="448" y="125"/>
      <point x="665" y="125" type="curve" smooth="yes"/>
      <point x="921" y="125"/>
      <point x="1047" y="239"/>
      <point x="1089" y="533" type="curve" smooth="yes"/>
      <point x="1226" y="1492" type="line"/>
      <point x="1386" y="1492" type="line"/>
      <point x="1250" y="529" type="line" smooth="yes"/>
      <point x="1205" y="209"/>
      <point x="1055" y="-13"/>
      <point x="643" y="-13" type="curve" smooth="yes"/>
      <point x="297" y="-13"/>
      <point x="184" y="145"/>
      <point x="184" y="387" type="curve" smooth="yes"/>
      <point x="184" y="431"/>
      <point x="188" y="478"/>
      <point x="195" y="527" type="curve" smooth="yes"/>
    </contour>
    <contour>
      <point x="659" y="1489" type="move" name="top"/>
    </contour>
    <contour>
      <point x="1185" y="10" type="move" name="ogonek"/>
    </contour>
  </outline>
</glyph>
<glyph name="bracketleft" format="1">
  <advance width="645"/>
  <unicode hex="005B"/>
  <outline>
    <contour>
      <point x="528" y="-139" type="line"/>
      <point x="511" y="-261" type="line"/>
      <point x="79" y="-261" type="line"/>
      <point x="328" y="1505" type="line"/>
      <point x="759" y="1505" type="line"/>
      <point x="741" y="1381" type="line"/>
      <point x="481" y="1381" type="line"/>
      <point x="268" y="-139" type="line"/>
    </contour>
  </outline>
</glyph>
<glyph name="backslash" format="1">
  <advance width="870"/>
  <unicode hex="005C"/>
  <outline>
    <contour>
      <point x="805" y="-120" type="line"/>
      <point x="669" y="-120" type="line"/>
      <point x="285" y="1466" type="line"/>
      <point x="422" y="1466" type="line"/>
    </contour>
  </outline>
</glyph>
<glyph name="i" format="1">
  <advance width="420"/>
  <unicode hex="0069"/>
  <outline>
    <contour>
      <point x="490" y="1441" type="line"/>
      <point x="462" y="1243" type="line"/>
      <point x="318" y="1243" type="line"/>
      <point x="346" y="1441" type="line"/>
    </contour>
    <contour>
      <point x="434" y="1043" type="line"/>
      <point x="287" y="0" type="line"/>
      <point x="144" y="0" type="line"/>
      <point x="290" y="1043" type="line"/>
    </contour>
  </outline>
</glyph>
<glyph name="j" format="1">
  <advance width="379"/>
  <unicode hex="006A"/>
  <outline>
    <contour>
      <point x="483" y="1441" type="line"/>
      <point x="455" y="1243" type="line"/>
      <point x="311" y="1243" type="line"/>
      <point x="338" y="1441" type="line"/>
    </contour>
    <contour>
      <point x="427" y="1043" type="line"/>
      <point x="259" y="-139" type="line" smooth="yes"/>
      <point x="221" y="-407"/>
      <point x="159" y="-476"/>
      <point x="-120" y="-476" type="curve"/>
      <point x="-120" y="-351" type="line"/>
      <point x="81" y="-351"/>
      <point x="93" y="-286"/>
      <point x="117" y="-121" type="curve" smooth="yes"/>
      <point x="283" y="1043" type="line"/>
    </contour>
  </outline>
</glyph>
<glyph name="l" format="1">
  <advance width="508"/>
  <unicode hex="006C"/>
  <outline>
    <contour>
      <point x="474" y="1510" type="line"/>
      <point x="306" y="313" type="line"/>
      <point x="302" y="273"/>
      <point x="300" y="244"/>
      <point x="300" y="223" type="curve" smooth="yes"/>
      <point x="300" y="133"/>
      <point x="322" y="104"/>
      <point x="374" y="104" type="curve" smooth="yes"/>
      <point x="407" y="104"/>
      <point x="449" y="116"/>
      <point x="508" y="130" type="curve"/>
      <point x="508" y="9" type="line"/>
      <point x="445" y="-10"/>
      <point x="386" y="-21"/>
      <point x="335" y="-21" type="curve" smooth="yes"/>
      <point x="226" y="-21"/>
      <point x="153" y="30"/>
      <point x="153" y="171" type="curve" smooth="yes"/>
      <point x="153" y="215"/>
      <point x="157" y="274"/>
      <point x="168" y="350" type="curve" smooth="yes"/>
      <point x="328" y="1490" type="line"/>
    </contour>
    <contour>
      <point x="254" y="1043" type="move" name="top"/>
    </contour>
    <contour>
      <point x="254" y="0" type="move" name="bottom"/>
    </contour>
    <contour>
      <point x="488" y="1043" type="move" name="topright"/>
    </contour>
  </outline>
</glyph>
<glyph name="q" format="1">
  <advance width="1004"/>
  <unicode hex="0071"/>
  <outline>
    <contour>
      <point x="841" y="628" type="curve" smooth="yes"/>
      <point x="841" y="808"/>
      <point x="774" y="944"/>
      <point x="608" y="944" type="curve" smooth="yes"/>
      <point x="378" y="944"/>
      <point x="280" y="658"/>
      <point x="280" y="412" type="curve" smooth="yes"/>
      <point x="280" y="248"/>
      <point x="333" y="103"/>
      <point x="496" y="103" type="curve" smooth="yes"/>
      <point x="722" y="103"/>
      <point x="841" y="352"/>
    </contour>
    <contour>
      <point x="622" y="1069" type="curve" smooth="yes"/>
      <point x="753" y="1069"/>
      <point x="839" y="996"/>
      <point x="884" y="886" type="curve"/>
      <point x="906" y="1043" type="line"/>
      <point x="1046" y="1043" type="line"/>
      <point x="838" y="-439" type="line"/>
      <point x="692" y="-459" type="line"/>
      <point x="780" y="168" type="line"/>
      <point x="704" y="49"/>
      <point x="589" y="-25"/>
      <point x="458" y="-25" type="curve" smooth="yes"/>
      <point x="233" y="-25"/>
      <point x="129" y="164"/>
      <point x="129" y="395" type="curve" smooth="yes"/>
      <point x="129" y="753"/>
      <point x="323" y="1069"/>
    </contour>
  </outline>
</glyph>
<glyph name="s" format="1">
  <advance width="787"/>
  <unicode hex="0073"/>
  <outline>
    <contour>
      <point x="633" y="313" type="curve" smooth="yes"/>
      <point x="633" y="370"/>
      <point x="602" y="430"/>
      <point x="513" y="458" type="curve" smooth="yes"/>
      <point x="399" y="495" type="line"/>
      <point x="240" y="545"/>
      <point x="187" y="621"/>
      <point x="187" y="725" type="curve" smooth="yes"/>
      <point x="187" y="908"/>
      <point x="324" y="1069"/>
      <point x="546" y="1069" type="curve" smooth="yes"/>
      <point x="667" y="1069"/>
      <point x="756" y="1041"/>
      <point x="822" y="998" type="curve"/>
      <point x="771" y="881" type="line"/>
      <point x="723" y="907"/>
      <point x="641" y="946"/>
      <point x="538" y="946" type="curve" smooth="yes"/>
      <point x="432" y="945"/>
      <point x="334" y="877"/>
      <point x="334" y="750" type="curve" smooth="yes"/>
      <point x="334" y="697"/>
      <point x="364" y="658"/>
      <point x="449" y="629" type="curve" smooth="yes"/>
      <point x="571" y="587" type="line" smooth="yes"/>
      <point x="699" y="543"/>
      <point x="777" y="477"/>
      <point x="777" y="344" type="curve" smooth="yes"/>
      <point x="777" y="106"/>
      <point x="605" y="-25"/>
      <point x="413" y="-25" type="curve" smooth="yes"/>
      <point x="269" y="-25"/>
      <point x="152" y="33"/>
      <point x="102" y="82" type="curve"/>
      <point x="136" y="204" type="line"/>
      <point x="168" y="177"/>
      <point x="284" y="100"/>
      <point x="412" y="100" type="curve" smooth="yes"/>
      <point x="530" y="100"/>
      <point x="633" y="169"/>
    </contour>
    <contour>
      <point x="394" y="1043" type="move" name="top"/>
    </contour>
    <contour>
      <point x="394" y="0" type="move" name="bottom"/>
    </contour>
  </outline>
</glyph>
<glyph name="t" format="1">
  <advance width="621"/>
  <unicode hex="0074"/>
  <outline>
    <contour>
      <point x="430" y="925" type="line"/>
      <point x="351" y="351" type="line" smooth="yes"/>
      <point x="344" y="299"/>
      <point x="339" y="258"/>
      <point x="339" y="226" type="curve" smooth="yes"/>
      <point x="339" y="136"/>
      <point x="372" y="109"/>
      <point x="424" y="109" type="curve" smooth="yes"/>
      <point x="465" y="109"/>
      <point x="518" y="123"/>
      <point x="575" y="136" type="curve"/>
      <point x="575" y="17" type="line"/>
      <point x="501" y="-3"/>
      <point x="432" y="-17"/>
      <point x="374" y="-17" type="curve" smooth="yes"/>
      <point x="264" y="-17"/>
      <point x="193" y="33"/>
      <point x="193" y="182" type="curve" smooth="yes"/>
      <point x="193" y="244"/>
      <point x="203" y="323"/>
      <point x="216" y="419" type="curve" smooth="yes"/>
      <point x="286" y="925" type="line"/>
      <point x="143" y="925" type="line"/>
      <point x="171" y="1043" type="line"/>
      <point x="310" y="1043" type="line"/>
      <point x="386" y="1301" type="line"/>
      <point x="485" y="1320" type="line"/>
      <point x="447" y="1043" type="line"/>
      <point x="696" y="1043" type="line"/>
      <point x="679" y="925" type="line"/>
    </contour>
    <contour>
      <point x="311" y="0" type="move" name="bottom"/>
    </contour>
    <contour>
      <point x="311" y="522" type="move" name="center"/>
    </contour>
  </outline>
</glyph>
<glyph name="cent" format="1">
  <advance width="1033"/>
  <unicode hex="00A2"/>
  <outline>
    <contour>
      <point x="554" y="319" type="curve"/>
      <point x="671" y="1146" type="line"/>
      <point x="502" y="1103"/>
      <point x="354" y="900"/>
      <point x="354" y="643" type="curve" smooth="yes"/>
      <point x="354" y="435"/>
      <point x="444" y="342"/>
    </contour>
    <contour>
      <point x="720" y="1492" type="line"/>
      <point x="811" y="1492" type="line"/>
      <point x="781" y="1277" type="line"/>
      <point x="873" y="1270"/>
      <point x="944" y="1236"/>
      <point x="984" y="1184" type="curve"/>
      <point x="932" y="1070" type="line"/>
      <point x="880" y="1121"/>
      <point x="821" y="1148"/>
      <point x="763" y="1154" type="curve"/>
      <point x="645" y="315" type="line"/>
      <point x="722" y="323"/>
      <point x="800" y="356"/>
      <point x="859" y="402" type="curve"/>
      <point x="859" y="274" type="line"/>
      <point x="797" y="216"/>
      <point x="710" y="191"/>
      <point x="627" y="186" type="curve"/>
      <point x="601" y="0" type="line"/>
      <point x="509" y="0" type="line"/>
      <point x="536" y="188" type="line"/>
      <point x="317" y="215"/>
      <point x="206" y="400"/>
      <point x="206" y="627" type="curve" smooth="yes"/>
      <point x="206" y="955"/>
      <point x="411" y="1243"/>
      <point x="689" y="1276" type="curve"/>
    </contour>
  </outline>
</glyph>
<glyph name="dieresis" format="1">
  <advance width="726"/>
  <unicode hex="00A8"/>
  <outline>
    <contour>
      <point x="437" y="1254" type="line"/>
      <point x="290" y="1254" type="line"/>
      <point x="319" y="1466" type="line"/>
      <point x="467" y="1466" type="line"/>
    </contour>
    <contour>
      <point x="806" y="1254" type="line"/>
      <point x="657" y="1254" type="line"/>
      <point x="687" y="1466" type="line"/>
      <point x="835" y="1466" type="line"/>
    </contour>
    <contour>
      <point x="562.5" y="1043" type="move" name="_top"/>
    </contour>
  </outline>
</glyph>
<glyph name="logicalnot" format="1">
  <advance width="1194"/>
  <unicode hex="00AC"/>
  <outline>
    <contour>
      <point x="1100" y="256" type="line"/>
      <point x="972" y="256" type="line"/>
      <point x="1036" y="709" type="line"/>
      <point x="210" y="709" type="line"/>
      <point x="231" y="860" type="line"/>
      <point x="1185" y="860" type="line"/>
    </contour>
  </outline>
</glyph>
<glyph name="acute" format="1">
  <advance width="609"/>
  <unicode hex="00B4"/>
  <outline>
    <contour>
      <point x="751" y="1638" type="line"/>
      <point x="384" y="1250" type="line"/>
      <point x="299" y="1250" type="line"/>
      <point x="532" y="1638" type="line"/>
    </contour>
    <contour>
      <point x="537" y="1043" type="move" name="_top"/>
    </contour>
  </outline>
</glyph>
<glyph name="onequarter" format="1">
  <advance width="1504"/>
  <unicode hex="00BC"/>
  <outline>
    <contour>
      <point x="1048" y="358" type="line"/>
      <point x="1277" y="358" type="line"/>
      <point x="1312" y="608" type="line" smooth="yes"/>
      <point x="1319" y="660"/>
      <point x="1324" y="688"/>
      <point x="1329" y="716" type="curve"/>
    </contour>
    <contour>
      <point x="1336" y="40" type="line"/>
      <point x="1234" y="40" type="line"/>
      <point x="1262" y="240" type="line"/>
      <point x="899" y="240" type="line"/>
      <point x="913" y="339" type="line"/>
      <point x="1344" y="899" type="line"/>
      <point x="1459" y="899" type="line"/>
      <point x="1383" y="358" type="line"/>
      <point x="1470" y="358" type="line"/>
      <point x="1463" y="240" type="line"/>
      <point x="1364" y="240" type="line"/>
    </contour>
    <contour>
      <point x="1351" y="1547" type="line"/>
      <point x="1486" y="1547" type="line"/>
      <point x="402" y="0" type="line"/>
      <point x="277" y="0" type="line"/>
    </contour>
    <contour>
      <point x="297" y="1294" type="curve"/>
      <point x="317" y="1436" type="line"/>
      <point x="377" y="1461"/>
      <point x="425" y="1487"/>
      <point x="467" y="1519" type="curve"/>
      <point x="559" y="1538" type="line"/>
      <point x="451" y="775" type="line"/>
      <point x="556" y="775" type="line"/>
      <point x="538" y="650" type="line"/>
      <point x="232" y="650" type="line"/>
      <point x="250" y="778" type="line"/>
      <point x="350" y="778" type="line"/>
      <point x="406" y="1179"/>
      <point x="416" y="1263"/>
      <point x="431" y="1369" type="curve"/>
      <point x="391" y="1344"/>
      <point x="342" y="1317"/>
    </contour>
  </outline>
</glyph>
<glyph name="threequarters" format="1">
  <advance width="1525"/>
  <unicode hex="00BE"/>
  <outline>
    <contour>
      <point x="1068" y="361" type="line"/>
      <point x="1297" y="361" type="line"/>
      <point x="1332" y="608"/>
      <point x="1339" y="664"/>
      <point x="1350" y="721" type="curve"/>
    </contour>
    <contour>
      <point x="1358" y="44" type="line"/>
      <point x="1255" y="44" type="line"/>
      <point x="1283" y="245" type="line"/>
      <point x="919" y="245" type="line"/>
      <point x="932" y="343" type="line"/>
      <point x="1364" y="903" type="line"/>
      <point x="1479" y="903" type="line"/>
      <point x="1403" y="361" type="line"/>
      <point x="1493" y="361" type="line"/>
      <point x="1484" y="245" type="line"/>
      <point x="1386" y="245" type="line"/>
    </contour>
    <contour>
      <point x="1387" y="1547" type="line"/>
      <point x="1523" y="1547" type="line"/>
      <point x="436" y="0" type="line"/>
      <point x="311" y="0" type="line"/>
    </contour>
    <contour>
      <point x="436" y="1174" type="line" smooth="yes"/>
      <point x="537" y="1174"/>
      <point x="618" y="1214"/>
      <point x="618" y="1330" type="curve" smooth="yes"/>
      <point x="618" y="1395"/>
      <point x="577" y="1424"/>
      <point x="517" y="1424" type="curve" smooth="yes"/>
      <point x="457" y="1424"/>
      <point x="401" y="1390"/>
      <point x="346" y="1339" type="curve"/>
      <point x="314" y="1442" type="line"/>
      <point x="374" y="1506"/>
      <point x="458" y="1553"/>
      <point x="538" y="1553" type="curve" smooth="yes"/>
      <point x="644" y="1553"/>
      <point x="752" y="1475"/>
      <point x="752" y="1342" type="curve" smooth="yes"/>
      <point x="752" y="1234"/>
      <point x="696" y="1156"/>
      <point x="613" y="1112" type="curve"/>
      <point x="677" y="1078"/>
      <point x="714" y="1022"/>
      <point x="714" y="942" type="curve" smooth="yes"/>
      <point x="714" y="749"/>
      <point x="549" y="631"/>
      <point x="404" y="631" type="curve" smooth="yes"/>
      <point x="325" y="631"/>
      <point x="259" y="667"/>
      <point x="215" y="735" type="curve"/>
      <point x="277" y="838" type="line"/>
      <point x="317" y="782"/>
      <point x="363" y="753"/>
      <point x="415" y="753" type="curve" smooth="yes"/>
      <point x="500" y="753"/>
      <point x="583" y="822"/>
      <point x="583" y="932" type="curve" smooth="yes"/>
      <point x="583" y="1016"/>
      <point x="521" y="1046"/>
      <point x="423" y="1046" type="curve" smooth="yes"/>
      <point x="377" y="1046" type="line"/>
      <point x="395" y="1174" type="line"/>
    </contour>
  </outline>
</glyph>
<glyph name="multiply" format="1">
  <advance width="924"/>
  <unicode hex="00D7"/>
  <outline>
    <contour>
      <point x="932" y="915" type="line"/>
      <point x="641" y="598" type="line"/>
      <point x="842" y="278" type="line"/>
      <point x="740" y="166" type="line"/>
      <point x="526" y="486" type="line"/>
      <point x="218" y="166" type="line"/>
      <point x="149" y="276" type="line"/>
      <point x="442" y="598" type="line"/>
      <point x="239" y="917" type="line"/>
      <point x="339" y="1027" type="line"/>
      <point x="557" y="707" type="line"/>
      <point x="861" y="1027" type="line"/>
    </contour>
  </outline>
</glyph>
<glyph name="Thorn" format="1">
  <advance width="1213"/>
  <unicode hex="00DE"/>
  <outline>
    <contour>
      <point x="461" y="1068" type="line"/>
      <point x="380" y="493" type="line"/>
      <point x="737" y="493" type="line" smooth="yes"/>
      <point x="968" y="493"/>
      <point x="1064" y="615"/>
      <point x="1087" y="782" type="curve" smooth="yes"/>
      <point x="1090" y="807"/>
      <point x="1092" y="830"/>
      <point x="1092" y="851" type="curve" smooth="yes"/>
      <point x="1092" y="1000"/>
      <point x="1003" y="1068"/>
      <point x="779" y="1068" type="curve" smooth="yes"/>
    </contour>
    <contour>
      <point x="141" y="0" type="line"/>
      <point x="351" y="1496" type="line"/>
      <point x="521" y="1496" type="line"/>
      <point x="482" y="1217" type="line"/>
      <point x="785" y="1217" type="line" smooth="yes"/>
      <point x="1087" y="1217"/>
      <point x="1257" y="1128"/>
      <point x="1257" y="882" type="curve" smooth="yes"/>
      <point x="1257" y="854"/>
      <point x="1255" y="824"/>
      <point x="1250" y="791" type="curve" smooth="yes"/>
      <point x="1213" y="525"/>
      <point x="1054" y="342"/>
      <point x="729" y="342" type="curve" smooth="yes"/>
      <point x="722" y="342"/>
      <point x="360" y="349"/>
      <point x="360" y="349" type="curve"/>
      <point x="311" y="0" type="line"/>
    </contour>
  </outline>
</glyph>
<glyph name="Dcroat" format="1">
  <advance width="1522"/>
  <unicode hex="0110"/>
  <outline>
    <contour>
      <point x="125" y="697" type="line"/>
      <point x="144" y="832" type="line"/>
      <point x="258" y="832" type="line"/>
      <point x="351" y="1496" type="line"/>
      <point x="701" y="1496" type="line" smooth="yes"/>
      <point x="1136" y="1496"/>
      <point x="1444" y="1350"/>
      <point x="1444" y="903" type="curve" smooth="yes"/>
      <point x="1444" y="852"/>
      <point x="1440" y="797"/>
      <point x="1432" y="738" type="curve" smooth="yes"/>
      <point x="1362" y="240"/>
      <point x="1029" y="0"/>
      <point x="586" y="0" type="curve" smooth="yes"/>
      <point x="141" y="0" type="line"/>
      <point x="239" y="697" type="line"/>
    </contour>
    <contour>
      <point x="409" y="697" type="line"/>
      <point x="333" y="155" type="line"/>
      <point x="626" y="155" type="line" smooth="yes"/>
      <point x="966" y="155"/>
      <point x="1196" y="347"/>
      <point x="1250" y="734" type="curve" smooth="yes"/>
      <point x="1257" y="787"/>
      <point x="1261" y="836"/>
      <point x="1261" y="881" type="curve" smooth="yes"/>
      <point x="1261" y="1234"/>
      <point x="1037" y="1341"/>
      <point x="700" y="1341" type="curve" smooth="yes"/>
      <point x="500" y="1341" type="line"/>
      <point x="428" y="832" type="line"/>
      <point x="644" y="832" type="line"/>
      <point x="625" y="697" type="line"/>
    </contour>
  </outline>
</glyph>
<glyph name="dcroat" format="1">
  <advance width="1174"/>
  <unicode hex="0111"/>
  <outline>
    <contour>
      <point x="823" y="1199" type="line"/>
      <point x="843" y="1341" type="line"/>
      <point x="953" y="1341" type="line"/>
      <point x="933" y="1199" type="line"/>
    </contour>
    <contour>
      <point x="285" y="417" type="curve" smooth="yes"/>
      <point x="285" y="246"/>
      <point x="341" y="103"/>
      <point x="500" y="103" type="curve" smooth="yes"/>
      <point x="718" y="103"/>
      <point x="847" y="350"/>
      <point x="847" y="629" type="curve" smooth="yes"/>
      <point x="847" y="811"/>
      <point x="778" y="944"/>
      <point x="610" y="944" type="curve" smooth="yes"/>
      <point x="388" y="944"/>
      <point x="285" y="664"/>
    </contour>
    <contour>
      <point x="618" y="1070" type="curve" smooth="yes"/>
      <point x="742" y="1070"/>
      <point x="856" y="999"/>
      <point x="889" y="885" type="curve"/>
      <point x="933" y="1199" type="line"/>
      <point x="1075" y="1199" type="line"/>
      <point x="907" y="0" type="line"/>
      <point x="781" y="0" type="line"/>
      <point x="786" y="169" type="line"/>
      <point x="716" y="59"/>
      <point x="599" y="-24"/>
      <point x="469" y="-24" type="curve" smooth="yes"/>
      <point x="252" y="-24"/>
      <point x="136" y="145"/>
      <point x="136" y="399" type="curve" smooth="yes"/>
      <point x="136" y="759"/>
      <point x="344" y="1070"/>
    </contour>
    <contour>
      <point x="953" y="1341" type="line"/>
      <point x="973" y="1487" type="line"/>
      <point x="1119" y="1510" type="line"/>
      <point x="1095" y="1341" type="line"/>
    </contour>
    <contour>
      <point x="1095" y="1341" type="line"/>
      <point x="1330" y="1341" type="line"/>
      <point x="1310" y="1199" type="line"/>
      <point x="1075" y="1199" type="line"/>
    </contour>
  </outline>
</glyph>
<glyph name="lslash" format="1">
  <advance width="563"/>
  <unicode hex="0142"/>
  <outline>
    <contour>
      <point x="552" y="985" type="line"/>
      <point x="532" y="839" type="line"/>
      <point x="375" y="712" type="line"/>
      <point x="335" y="431" type="line" smooth="yes"/>
      <point x="322" y="339"/>
      <point x="313" y="271"/>
      <point x="313" y="223" type="curve" smooth="yes"/>
      <point x="313" y="133"/>
      <point x="335" y="104"/>
      <point x="387" y="104" type="curve" smooth="yes"/>
      <point x="420" y="104"/>
      <point x="464" y="116"/>
      <point x="523" y="130" type="curve"/>
      <point x="521" y="9" type="line"/>
      <point x="458" y="-10"/>
      <point x="399" y="-21"/>
      <point x="348" y="-21" type="curve" smooth="yes"/>
      <point x="239" y="-21"/>
      <point x="166" y="30"/>
      <point x="166" y="171" type="curve" smooth="yes"/>
      <point x="166" y="244"/>
      <point x="179" y="342"/>
      <point x="197" y="468" type="curve" smooth="yes"/>
      <point x="213" y="581" type="line"/>
      <point x="95" y="486" type="line"/>
      <point x="115" y="631" type="line"/>
      <point x="233" y="727" type="line"/>
      <point x="341" y="1490" type="line"/>
      <point x="487" y="1510" type="line"/>
      <point x="395" y="858" type="line"/>
    </contour>
  </outline>
</glyph>
<glyph name="Eng" format="1">
  <advance width="1332"/>
  <unicode hex="014A"/>
  <outline>
    <contour>
      <point x="745" y="-328" type="curve" smooth="yes"/>
      <point x="719" y="-328"/>
      <point x="673" y="-326"/>
      <point x="560" y="-314" type="curve"/>
      <point x="559" y="-166" type="line"/>
      <point x="684" y="-174"/>
      <point x="703" y="-175"/>
      <point x="723" y="-175" type="curve" smooth="yes"/>
      <point x="981" y="-175"/>
      <point x="1013" y="-101"/>
      <point x="1051" y="171" type="curve" smooth="yes"/>
      <point x="1168" y="1003" type="line" smooth="yes"/>
      <point x="1175" y="1053"/>
      <point x="1179" y="1097"/>
      <point x="1179" y="1135" type="curve" smooth="yes"/>
      <point x="1179" y="1299"/>
      <point x="1111" y="1358"/>
      <point x="948" y="1358" type="curve" smooth="yes"/>
      <point x="745" y="1358"/>
      <point x="570" y="1232"/>
      <point x="462" y="1089" type="curve"/>
      <point x="309" y="0" type="line"/>
      <point x="140" y="0" type="line"/>
      <point x="348" y="1496" type="line"/>
      <point x="502" y="1496" type="line"/>
      <point x="490" y="1284" type="line"/>
      <point x="687" y="1480"/>
      <point x="860" y="1520"/>
      <point x="1023" y="1520" type="curve" smooth="yes"/>
      <point x="1238" y="1520"/>
      <point x="1348" y="1392"/>
      <point x="1348" y="1151" type="curve" smooth="yes"/>
      <point x="1348" y="1107"/>
      <point x="1344" y="1060"/>
      <point x="1337" y="1009" type="curve" smooth="yes"/>
      <point x="1218" y="165" type="line" smooth="yes"/>
      <point x="1175" y="-143"/>
      <point x="1084" y="-328"/>
    </contour>
  </outline>
</glyph>
<glyph name="OE" format="1">
  <advance width="1853"/>
  <unicode hex="0152"/>
  <outline>
    <contour>
      <point x="960" y="1373" type="curve" smooth="yes"/>
      <point x="615" y="1373"/>
      <point x="375" y="1038"/>
      <point x="375" y="605" type="curve" smooth="yes"/>
      <point x="375" y="332"/>
      <point x="489" y="132"/>
      <point x="793" y="129" type="curve"/>
      <point x="913" y="129"/>
      <point x="1059" y="193"/>
      <point x="1108" y="222" type="curve"/>
      <point x="1253" y="1259" type="line"/>
      <point x="1190" y="1322"/>
      <point x="1090" y="1373"/>
    </contour>
    <contour>
      <point x="192" y="594" type="curve" smooth="yes"/>
      <point x="192" y="1128"/>
      <point x="546" y="1524"/>
      <point x="965" y="1524" type="curve" smooth="yes"/>
      <point x="1103" y="1524"/>
      <point x="1214" y="1478"/>
      <point x="1275" y="1413" type="curve"/>
      <point x="1286" y="1495" type="line"/>
      <point x="1967" y="1495" type="line"/>
      <point x="1930" y="1341" type="line"/>
      <point x="1435" y="1341" type="line"/>
      <point x="1365" y="845" type="line"/>
      <point x="1826" y="845" type="line"/>
      <point x="1805" y="692" type="line"/>
      <point x="1344" y="692" type="line"/>
      <point x="1268" y="156" type="line"/>
      <point x="1801" y="156" type="line"/>
      <point x="1765" y="0" type="line"/>
      <point x="1076" y="0" type="line"/>
      <point x="1088" y="82" type="line"/>
      <point x="1041" y="36"/>
      <point x="878" y="-23"/>
      <point x="769" y="-23" type="curve" smooth="yes"/>
      <point x="383" y="-23"/>
      <point x="192" y="220"/>
    </contour>
    <contour>
      <point x="927" y="1489" type="move" name="top"/>
    </contour>
  </outline>
</glyph>
<glyph name="dotlessj" format="1">
  <advance width="378"/>
  <unicode hex="0237"/>
  <outline>
    <contour>
      <point x="425" y="1043" type="line"/>
      <point x="257" y="-151" type="line" smooth="yes"/>
      <point x="221" y="-410"/>
      <point x="157" y="-502"/>
      <point x="-77" y="-502" type="curve" smooth="yes"/>
      <point x="-122" y="-502" type="line"/>
      <point x="-120" y="-351" type="line"/>
      <point x="-75" y="-351" type="line" smooth="yes"/>
      <point x="81" y="-351"/>
      <point x="94" y="-289"/>
      <point x="116" y="-130" type="curve" smooth="yes"/>
      <point x="281" y="1043" type="line"/>
    </contour>
    <contour>
      <point x="189" y="1043" type="move" name="top"/>
    </contour>
  </outline>
</glyph>
<glyph name="tilde" format="1">
  <advance width="830"/>
  <unicode hex="02DC"/>
  <outline>
    <contour>
      <point x="395" y="1291" type="curve"/>
      <point x="292" y="1291" type="line"/>
      <point x="313" y="1441"/>
      <point x="384" y="1510"/>
      <point x="484" y="1510" type="curve" smooth="yes"/>
      <point x="600" y="1510"/>
      <point x="710" y="1416"/>
      <point x="745" y="1416" type="curve" smooth="yes"/>
      <point x="747" y="1416" type="line"/>
      <point x="785" y="1419"/>
      <point x="795" y="1468"/>
      <point x="804" y="1510" type="curve"/>
      <point x="908" y="1510" type="line"/>
      <point x="889" y="1373"/>
      <point x="837" y="1291"/>
      <point x="738" y="1291" type="curve" smooth="yes"/>
      <point x="654" y="1291"/>
      <point x="534" y="1388"/>
      <point x="461" y="1388" type="curve" smooth="yes"/>
      <point x="459" y="1388" type="line"/>
      <point x="428" y="1387"/>
      <point x="406" y="1346"/>
    </contour>
    <contour>
      <point x="600" y="1043" type="move" name="_top"/>
    </contour>
  </outline>
</glyph>
<glyph name="hungarumlaut" format="1">
  <advance width="779"/>
  <unicode hex="02DD"/>
  <outline>
    <contour>
      <point x="909" y="1594" type="line"/>
      <point x="621" y="1259" type="line"/>
      <point x="524" y="1259" type="line"/>
      <point x="765" y="1594" type="line"/>
    </contour>
    <contour>
      <point x="684" y="1594" type="line"/>
      <point x="395" y="1259" type="line"/>
      <point x="300" y="1259" type="line"/>
      <point x="537" y="1594" type="line"/>
    </contour>
    <contour>
      <point x="604.5" y="1043" type="move" name="_top"/>
    </contour>
  </outline>
</glyph>
<glyph name="uni030F" format="1">
  <advance width="814"/>
  <unicode hex="030F"/>
  <outline>
    <contour>
      <point x="779" y="1259" type="line"/>
      <point x="589" y="1594" type="line"/>
      <point x="734" y="1594" type="line"/>
      <point x="877" y="1259" type="line"/>
    </contour>
    <contour>
      <point x="522" y="1259" type="line"/>
      <point x="329" y="1594" type="line"/>
      <point x="473" y="1594" type="line"/>
      <point x="620" y="1259" type="line"/>
    </contour>
  </outline>
</glyph>
<glyph name="Gamma" format="1">
  <advance width="1094"/>
  <unicode hex="0393"/>
  <outline>
    <contour>
      <point x="1131" y="1341" type="line"/>
      <point x="499" y="1341" type="line"/>
      <point x="310" y="0" type="line"/>
      <point x="140" y="0" type="line"/>
      <point x="350" y="1496" type="line"/>
      <point x="1167" y="1496" type="line"/>
    </contour>
  </outline>
</glyph>
<glyph name="Lambda" format="1">
  <advance width="1176"/>
  <unicode hex="039B"/>
  <outline>
    <contour>
      <point x="771" y="1306" type="line"/>
      <point x="164" y="0" type="line"/>
      <point x="-10" y="0" type="line"/>
      <point x="711" y="1496" type="line"/>
      <point x="883" y="1496" type="line"/>
      <point x="1185" y="0" type="line"/>
      <point x="1016" y="0" type="line"/>
    </contour>
  </outline>
</glyph>
<glyph name="Upsilon" format="1">
  <advance width="1242"/>
  <unicode hex="03A5"/>
  <outline>
    <contour>
      <point x="1377" y="1496" type="line"/>
      <point x="730" y="614" type="line"/>
      <point x="644" y="0" type="line"/>
      <point x="474" y="0" type="line"/>
      <point x="561" y="614" type="line"/>
      <point x="209" y="1496" type="line"/>
      <point x="384" y="1496" type="line"/>
      <point x="680" y="778" type="line"/>
      <point x="1193" y="1496" type="line"/>
    </contour>
  </outline>
</glyph>
<glyph name="Upsilondieresis" format="1">
  <advance width="1242"/>
  <unicode hex="03AB"/>
  <outline>
    <contour>
      <point x="720" y="1627" type="line"/>
      <point x="573" y="1627" type="line"/>
      <point x="602" y="1839" type="line"/>
      <point x="750" y="1839" type="line"/>
    </contour>
    <contour>
      <point x="1089" y="1627" type="line"/>
      <point x="940" y="1627" type="line"/>
      <point x="970" y="1839" type="line"/>
      <point x="1118" y="1839" type="line"/>
    </contour>
    <contour>
      <point x="1377" y="1496" type="line"/>
      <point x="730" y="614" type="line"/>
      <point x="644" y="0" type="line"/>
      <point x="474" y="0" type="line"/>
      <point x="561" y="614" type="line"/>
      <point x="209" y="1496" type="line"/>
      <point x="384" y="1496" type="line"/>
      <point x="680" y="778" type="line"/>
      <point x="1193" y="1496" type="line"/>
    </contour>
  </outline>
</glyph>
<glyph name="chi" format="1">
  <advance width="1030"/>
  <unicode hex="03C7"/>
  <outline>
    <contour>
      <point x="853" y="1043" type="line"/>
      <point x="1020" y="1043" type="line"/>
      <point x="610" y="524" type="line"/>
      <point x="874" y="0" type="line"/>
      <point x="718" y="0" type="line"/>
      <point x="511" y="417" type="line"/>
      <point x="188" y="0" type="line"/>
      <point x="22" y="0" type="line"/>
      <point x="441" y="528" type="line"/>
      <point x="177" y="1043" type="line"/>
      <point x="343" y="1043" type="line"/>
      <point x="541" y="648" type="line"/>
    </contour>
  </outline>
</glyph>
<glyph name="uni0403" format="1">
  <advance width="947"/>
  <unicode hex="0403"/>
  <outline>
    <contour>
      <point x="1131" y="1343" type="line"/>
      <point x="500" y="1343" type="line"/>
      <point x="311" y="0" type="line"/>
      <point x="141" y="0" type="line"/>
      <point x="351" y="1496" type="line"/>
      <point x="1153" y="1496" type="line"/>
    </contour>
  </outline>
</glyph>
<glyph name="afii10056" format="1">
  <advance width="490"/>
  <unicode hex="0407"/>
  <outline>
    <contour>
      <point x="528" y="1497" type="line"/>
      <point x="318" y="0" type="line"/>
      <point x="149" y="0" type="line"/>
      <point x="359" y="1497" type="line"/>
    </contour>
    <contour>
      <point x="341" y="1606" type="line"/>
      <point x="194" y="1606" type="line"/>
      <point x="223" y="1818" type="line"/>
      <point x="371" y="1818" type="line"/>
    </contour>
    <contour>
      <point x="710" y="1606" type="line"/>
      <point x="561" y="1606" type="line"/>
      <point x="591" y="1818" type="line"/>
      <point x="739" y="1818" type="line"/>
    </contour>
  </outline>
</glyph>
<glyph name="uni0408" format="1">
  <advance width="550"/>
  <unicode hex="0408"/>
  <outline>
    <contour>
      <point x="234" y="181" type="curve" smooth="yes"/>
      <point x="419" y="1496" type="line"/>
      <point x="589" y="1496" type="line"/>
      <point x="413" y="241" type="line" smooth="yes"/>
      <point x="370" y="-67"/>
      <point x="316" y="-214"/>
      <point x="-16" y="-214" type="curve" smooth="yes"/>
      <point x="-49" y="-214" type="line"/>
      <point x="-49" y="-72" type="line"/>
      <point x="20" y="-72" type="line" smooth="yes"/>
      <point x="189" y="-72"/>
      <point x="213" y="33"/>
    </contour>
  </outline>
</glyph>
<glyph name="afii10060" format="1">
  <advance width="959"/>
  <unicode hex="040B"/>
  <outline>
    <contour>
      <point x="166" y="1341" type="line"/>
      <point x="188" y="1496" type="line"/>
      <point x="1190" y="1496" type="line"/>
      <point x="1169" y="1341" type="line"/>
      <point x="752" y="1341" type="line"/>
      <point x="564" y="0" type="line"/>
      <point x="394" y="0" type="line"/>
      <point x="582" y="1341" type="line"/>
    </contour>
  </outline>
</glyph>
<glyph name="uni0412" format="1">
  <advance width="1180"/>
  <unicode hex="0412"/>
  <outline>
    <contour>
      <point x="411" y="708" type="line"/>
      <point x="331" y="142" type="line"/>
      <point x="596" y="142" type="line" smooth="yes"/>
      <point x="839" y="142"/>
      <point x="978" y="227"/>
      <point x="1006" y="428" type="curve" smooth="yes"/>
      <point x="1009" y="448"/>
      <point x="1010" y="466"/>
      <point x="1010" y="483" type="curve" smooth="yes"/>
      <point x="1010" y="634"/>
      <point x="910" y="708"/>
      <point x="723" y="708" type="curve" smooth="yes"/>
    </contour>
    <contour>
      <point x="501" y="1349" type="line"/>
      <point x="430" y="846" type="line"/>
      <point x="723" y="846" type="line" smooth="yes"/>
      <point x="852" y="846"/>
      <point x="1005" y="885"/>
      <point x="1035" y="1096" type="curve" smooth="yes"/>
      <point x="1038" y="1116"/>
      <point x="1039" y="1135"/>
      <point x="1039" y="1152" type="curve" smooth="yes"/>
      <point x="1039" y="1326"/>
      <point x="896" y="1349"/>
      <point x="690" y="1349" type="curve" smooth="yes"/>
    </contour>
    <contour>
      <point x="141" y="0" type="line"/>
      <point x="351" y="1496" type="line"/>
      <point x="734" y="1496" type="line" smooth="yes"/>
      <point x="1045" y="1496"/>
      <point x="1223" y="1411"/>
      <point x="1223" y="1195" type="curve" smooth="yes"/>
      <point x="1223" y="1175"/>
      <point x="1221" y="1154"/>
      <point x="1218" y="1131" type="curve" smooth="yes"/>
      <point x="1198" y="988"/>
      <point x="1120" y="851"/>
      <point x="969" y="801" type="curve"/>
      <point x="1120" y="766"/>
      <point x="1182" y="630"/>
      <point x="1182" y="491" type="curve" smooth="yes"/>
      <point x="1182" y="469"/>
      <point x="1181" y="447"/>
      <point x="1178" y="426" type="curve" smooth="yes"/>
      <point x="1141" y="163"/>
      <point x="974" y="0"/>
      <point x="607" y="0" type="curve" smooth="yes"/>
    </contour>
  </outline>
</glyph>
<glyph name="afii10037" format="1">
  <advance width="1126"/>
  <unicode hex="0423"/>
  <outline>
    <contour>
      <point x="500" y="0" type="line"/>
      <point x="318" y="0" type="line"/>
      <point x="557" y="466" type="line"/>
      <point x="209" y="1496" type="line"/>
      <point x="396" y="1496" type="line"/>
      <point x="681" y="637" type="line"/>
      <point x="1154" y="1496" type="line"/>
      <point x="1337" y="1496" type="line"/>
    </contour>
  </outline>
</glyph>
<glyph name="uni0428" format="1">
  <advance width="1571"/>
  <unicode hex="0428"/>
  <outline>
    <contour>
      <point x="333" y="155" type="line"/>
      <point x="725" y="155" type="line"/>
      <point x="914" y="1496" type="line"/>
      <point x="1084" y="1496" type="line"/>
      <point x="895" y="155" type="line"/>
      <point x="1290" y="155" type="line"/>
      <point x="1478" y="1496" type="line"/>
      <point x="1648" y="1496" type="line"/>
      <point x="1438" y="0" type="line"/>
      <point x="141" y="0" type="line"/>
      <point x="351" y="1496" type="line"/>
      <point x="521" y="1496" type="line"/>
    </contour>
  </outline>
</glyph>
<glyph name="uni043B" format="1">
  <advance width="1011"/>
  <unicode hex="043B"/>
  <outline>
    <contour>
      <point x="321" y="1043" type="line"/>
      <point x="1053" y="1043" type="line"/>
      <point x="906" y="0" type="line"/>
      <point x="763" y="0" type="line"/>
      <point x="890" y="901" type="line"/>
      <point x="445" y="901" type="line"/>
      <point x="373" y="394" type="line" smooth="yes"/>
      <point x="329" y="84"/>
      <point x="312" y="-25"/>
      <point x="50" y="-25" type="curve" smooth="yes"/>
      <point x="18" y="-25" type="line"/>
      <point x="31" y="128" type="line"/>
      <point x="71" y="128" type="line" smooth="yes"/>
      <point x="190" y="128"/>
      <point x="199" y="182"/>
      <point x="229" y="393" type="curve" smooth="yes"/>
    </contour>
  </outline>
</glyph>
<glyph name="uni043D" format="1">
  <advance width="973"/>
  <unicode hex="043D"/>
  <outline>
    <contour>
      <point x="252" y="1043" type="line"/>
      <point x="396" y="1043" type="line"/>
      <point x="337" y="623" type="line"/>
      <point x="810" y="623" type="line"/>
      <point x="869" y="1043" type="line"/>
      <point x="1012" y="1043" type="line"/>
      <point x="865" y="0" type="line"/>
      <point x="722" y="0" type="line"/>
      <point x="791" y="488" type="line"/>
      <point x="318" y="488" type="line"/>
      <point x="249" y="0" type="line"/>
      <point x="105" y="0" type="line"/>
    </contour>
  </outline>
</glyph>
<glyph name="uni043F" format="1">
  <advance width="968"/>
  <unicode hex="043F"/>
  <outline>
    <contour>
      <point x="723" y="1069" type="curve" smooth="yes"/>
      <point x="891" y="1069"/>
      <point x="968" y="968"/>
      <point x="968" y="771" type="curve" smooth="yes"/>
      <point x="968" y="727"/>
      <point x="964" y="678"/>
      <point x="957" y="625" type="curve" smooth="yes"/>
      <point x="869" y="0" type="line"/>
      <point x="726" y="0" type="line"/>
      <point x="799" y="520" type="line" smooth="yes"/>
      <point x="812" y="613"/>
      <point x="822" y="690"/>
      <point x="822" y="751" type="curve" smooth="yes"/>
      <point x="822" y="879"/>
      <point x="787" y="944"/>
      <point x="673" y="944" type="curve" smooth="yes"/>
      <point x="518" y="944"/>
      <point x="389" y="832"/>
      <point x="354" y="748" type="curve"/>
      <point x="248" y="0" type="line"/>
      <point x="104" y="0" type="line"/>
      <point x="248" y="1043" type="line"/>
      <point x="372" y="1043" type="line"/>
      <point x="369" y="923" type="line"/>
      <point x="457" y="1013"/>
      <point x="595" y="1069"/>
    </contour>
  </outline>
</glyph>
<glyph name="uni044E" format="1">
  <advance width="1273"/>
  <unicode hex="044E"/>
  <outline>
    <contour>
      <point x="817" y="113" type="curve" smooth="yes"/>
      <point x="1003" y="113"/>
      <point x="1085" y="310"/>
      <point x="1115" y="520" type="curve" smooth="yes"/>
      <point x="1122" y="571"/>
      <point x="1127" y="619"/>
      <point x="1127" y="665" type="curve" smooth="yes"/>
      <point x="1127" y="817"/>
      <point x="1079" y="931"/>
      <point x="929" y="931" type="curve" smooth="yes"/>
      <point x="744" y="931"/>
      <point x="649" y="727"/>
      <point x="619" y="517" type="curve" smooth="yes"/>
      <point x="613" y="477"/>
      <point x="610" y="438"/>
      <point x="610" y="400" type="curve" smooth="yes"/>
      <point x="610" y="242"/>
      <point x="664" y="113"/>
    </contour>
    <contour>
      <point x="1263" y="522" type="curve" smooth="yes"/>
      <point x="1222" y="233"/>
      <point x="1076" y="-25"/>
      <point x="794" y="-25" type="curve" smooth="yes"/>
      <point x="555" y="-25"/>
      <point x="460" y="146"/>
      <point x="460" y="378" type="curve" smooth="yes"/>
      <point x="460" y="402"/>
      <point x="461" y="426"/>
      <point x="463" y="451" type="curve"/>
      <point x="313" y="451" type="line"/>
      <point x="249" y="0" type="line"/>
      <point x="105" y="0" type="line"/>
      <point x="252" y="1043" type="line"/>
      <point x="396" y="1043" type="line"/>
      <point x="332" y="591" type="line"/>
      <point x="483" y="591" type="line"/>
      <point x="538" y="858"/>
      <point x="688" y="1069"/>
      <point x="951" y="1069" type="curve" smooth="yes"/>
      <point x="1188" y="1069"/>
      <point x="1275" y="902"/>
      <point x="1275" y="676" type="curve" smooth="yes"/>
      <point x="1275" y="627"/>
      <point x="1270" y="576"/>
    </contour>
  </outline>
</glyph>
<glyph name="afii10097" format="1">
  <advance width="908"/>
  <unicode hex="044F"/>
  <outline>
    <contour>
      <point x="512" y="901" type="line" smooth="yes"/>
      <point x="394" y="901"/>
      <point x="308" y="798"/>
      <point x="308" y="698" type="curve" smooth="yes"/>
      <point x="308" y="625"/>
      <point x="358" y="549"/>
      <point x="462" y="549" type="curve" smooth="yes"/>
      <point x="735" y="549" type="line"/>
      <point x="785" y="901" type="line"/>
    </contour>
    <contour>
      <point x="658" y="0" type="line"/>
      <point x="716" y="409" type="line"/>
      <point x="469" y="409" type="line"/>
      <point x="239" y="0" type="line"/>
      <point x="68" y="0" type="line"/>
      <point x="324" y="429" type="line"/>
      <point x="215" y="469"/>
      <point x="166" y="566"/>
      <point x="166" y="671" type="curve" smooth="yes"/>
      <point x="166" y="687"/>
      <point x="167" y="704"/>
      <point x="169" y="720" type="curve" smooth="yes"/>
      <point x="192" y="884"/>
      <point x="311" y="1043"/>
      <point x="541" y="1043" type="curve" smooth="yes"/>
      <point x="948" y="1043" type="line"/>
      <point x="801" y="0" type="line"/>
    </contour>
  </outline>
</glyph>
<glyph name="uni0453" format="1">
  <advance width="666"/>
  <unicode hex="0453"/>
  <outline>
    <contour>
      <point x="806" y="1614" type="line"/>
      <point x="439" y="1226" type="line"/>
      <point x="330" y="1226" type="line"/>
      <point x="563" y="1614" type="line"/>
    </contour>
    <contour>
      <point x="689" y="901" type="line"/>
      <point x="376" y="901" type="line"/>
      <point x="249" y="0" type="line"/>
      <point x="105" y="0" type="line"/>
      <point x="252" y="1043" type="line"/>
      <point x="709" y="1043" type="line"/>
    </contour>
  </outline>
</glyph>
<glyph name="afii10104" format="1">
  <advance width="430"/>
  <unicode hex="0457"/>
  <outline>
    <contour>
      <point x="261" y="1254" type="line"/>
      <point x="114" y="1254" type="line"/>
      <point x="143" y="1466" type="line"/>
      <point x="291" y="1466" type="line"/>
    </contour>
    <contour>
      <point x="630" y="1254" type="line"/>
      <point x="481" y="1254" type="line"/>
      <point x="511" y="1466" type="line"/>
      <point x="659" y="1466" type="line"/>
    </contour>
    <contour>
      <point x="415" y="1043" type="line"/>
      <point x="268" y="0" type="line"/>
      <point x="124" y="0" type="line"/>
      <point x="270" y="1043" type="line"/>
    </contour>
  </outline>
</glyph>
<glyph name="afii10108" format="1">
  <advance width="960"/>
  <unicode hex="045B"/>
  <outline>
    <contour>
      <point x="310" y="466" type="curve"/>
      <point x="244" y="0" type="line"/>
      <point x="100" y="0" type="line"/>
      <point x="247" y="1044" type="line"/>
      <point x="166" y="1044" type="line"/>
      <point x="182" y="1160" type="line"/>
      <point x="263" y="1160" type="line"/>
      <point x="312" y="1510" type="line"/>
      <point x="456" y="1510" type="line"/>
      <point x="407" y="1160" type="line"/>
      <point x="762" y="1160" type="line"/>
      <point x="746" y="1044" type="line"/>
      <point x="391" y="1044" type="line"/>
      <point x="338" y="672" type="line"/>
      <point x="429" y="782"/>
      <point x="538" y="849"/>
      <point x="666" y="849" type="curve" smooth="yes"/>
      <point x="850" y="849"/>
      <point x="934" y="743"/>
      <point x="934" y="549" type="curve" smooth="yes"/>
      <point x="934" y="511"/>
      <point x="930" y="469"/>
      <point x="924" y="424" type="curve" smooth="yes"/>
      <point x="865" y="0" type="line"/>
      <point x="722" y="0" type="line"/>
      <point x="770" y="347" type="line" smooth="yes"/>
      <point x="779" y="412"/>
      <point x="785" y="468"/>
      <point x="785" y="515" type="curve" smooth="yes"/>
      <point x="785" y="636"/>
      <point x="746" y="696"/>
      <point x="631" y="696" type="curve" smooth="yes"/>
      <point x="484" y="696"/>
      <point x="347" y="564"/>
    </contour>
  </outline>
</glyph>
<glyph name="afii10109" format="1">
  <advance width="997"/>
  <unicode hex="045C"/>
  <outline>
    <contour>
      <point x="1139" y="1614" type="line"/>
      <point x="772" y="1226" type="line"/>
      <point x="663" y="1226" type="line"/>
      <point x="896" y="1614" type="line"/>
    </contour>
    <contour>
      <point x="330" y="570" type="line"/>
      <point x="534" y="790" type="line" smooth="yes"/>
      <point x="709" y="978"/>
      <point x="760" y="1055"/>
      <point x="893" y="1055" type="curve" smooth="yes"/>
      <point x="916" y="1055"/>
      <point x="928" y="1050"/>
      <point x="958" y="1043" type="curve"/>
      <point x="936" y="893" type="line"/>
      <point x="913" y="897"/>
      <point x="894" y="901"/>
      <point x="876" y="901" type="curve" smooth="yes"/>
      <point x="794" y="901"/>
      <point x="704" y="759"/>
      <point x="541" y="605" type="curve" smooth="yes"/>
      <point x="441" y="511" type="line"/>
      <point x="855" y="0" type="line"/>
      <point x="661" y="0" type="line"/>
      <point x="312" y="447" type="line"/>
      <point x="249" y="0" type="line"/>
      <point x="105" y="0" type="line"/>
      <point x="252" y="1043" type="line"/>
      <point x="396" y="1043" type="line"/>
    </contour>
  </outline>
</glyph>
<glyph name="Wgrave" format="1">
  <advance width="2131"/>
  <unicode hex="1E80"/>
  <outline>
    <contour>
      <point x="1465" y="195" type="line"/>
      <point x="2053" y="1496" type="line"/>
      <point x="2227" y="1496" type="line"/>
      <point x="1535" y="0" type="line"/>
      <point x="1339" y="0" type="line"/>
      <point x="1185" y="1225" type="line"/>
      <point x="641" y="0" type="line"/>
      <point x="447" y="0" type="line"/>
      <point x="184" y="1496" type="line"/>
      <point x="360" y="1496" type="line"/>
      <point x="577" y="197" type="line"/>
      <point x="1115" y="1442" type="line"/>
      <point x="1310" y="1442" type="line"/>
    </contour>
    <contour>
      <point x="1385" y="1642" type="line"/>
      <point x="1130" y="2029" type="line"/>
      <point x="1370" y="2029" type="line"/>
      <point x="1493" y="1642" type="line"/>
    </contour>
  </outline>
</glyph>
<glyph name="wgrave" format="1">
  <advance width="1599"/>
  <unicode hex="1E81"/>
  <outline>
    <contour>
      <point x="160" y="1043" type="line"/>
      <point x="309" y="1043" type="line"/>
      <point x="402" y="212" type="line"/>
      <point x="766" y="1043" type="line"/>
      <point x="934" y="1043" type="line"/>
      <point x="1057" y="216" type="line"/>
      <point x="1377" y="1043" type="line"/>
      <point x="1521" y="1043" type="line"/>
      <point x="1092" y="0" type="line"/>
      <point x="950" y="0" type="line"/>
      <point x="825" y="882" type="line"/>
      <point x="439" y="0" type="line"/>
      <point x="294" y="0" type="line"/>
    </contour>
    <contour>
      <point x="1065" y="1251" type="line"/>
      <point x="810" y="1638" type="line"/>
      <point x="1050" y="1638" type="line"/>
      <point x="1173" y="1251" type="line"/>
    </contour>
  </outline>
</glyph>
<glyph name="Wacute" format="1">
  <advance width="2131"/>
  <unicode hex="1E82"/>
  <outline>
    <contour>
      <point x="1465" y="195" type="line"/>
      <point x="2053" y="1496" type="line"/>
      <point x="2227" y="1496" type="line"/>
      <point x="1535" y="0" type="line"/>
      <point x="1339" y="0" type="line"/>
      <point x="1185" y="1225" type="line"/>
      <point x="641" y="0" type="line"/>
      <point x="447" y="0" type="line"/>
      <point x="184" y="1496" type="line"/>
      <point x="360" y="1496" type="line"/>
      <point x="577" y="197" type="line"/>
      <point x="1115" y="1442" type="line"/>
      <point x="1310" y="1442" type="line"/>
    </contour>
    <contour>
      <point x="1548" y="2029" type="line"/>
      <point x="1181" y="1641" type="line"/>
      <point x="1072" y="1641" type="line"/>
      <point x="1305" y="2029" type="line"/>
    </contour>
  </outline>
</glyph>
<glyph name="wdieresis" format="1">
  <advance width="1599"/>
  <unicode hex="1E85"/>
  <outline>
    <contour>
      <point x="160" y="1043" type="line"/>
      <point x="309" y="1043" type="line"/>
      <point x="402" y="212" type="line"/>
      <point x="766" y="1043" type="line"/>
      <point x="934" y="1043" type="line"/>
      <point x="1057" y="216" type="line"/>
      <point x="1377" y="1043" type="line"/>
      <point x="1521" y="1043" type="line"/>
      <point x="1092" y="0" type="line"/>
      <point x="950" y="0" type="line"/>
      <point x="825" y="882" type="line"/>
      <point x="439" y="0" type="line"/>
      <point x="294" y="0" type="line"/>
    </contour>
    <contour>
      <point x="847" y="1254" type="line"/>
      <point x="700" y="1254" type="line"/>
      <point x="729" y="1466" type="line"/>
      <point x="877" y="1466" type="line"/>
    </contour>
    <contour>
      <point x="1216" y="1254" type="line"/>
      <point x="1067" y="1254" type="line"/>
      <point x="1097" y="1466" type="line"/>
      <point x="1245" y="1466" type="line"/>
    </contour>
  </outline>
</glyph>
<glyph name="uni1ef8" format="1">
  <advance width="1242"/>
  <unicode hex="1EF8"/>
  <outline>
    <contour>
      <point x="1377" y="1496" type="line"/>
      <point x="730" y="614" type="line"/>
      <point x="644" y="0" type="line"/>
      <point x="474" y="0" type="line"/>
      <point x="561" y="614" type="line"/>
      <point x="209" y="1496" type="line"/>
      <point x="384" y="1496" type="line"/>
      <point x="680" y="778" type="line"/>
      <point x="1193" y="1496" type="line"/>
    </contour>
    <contour>
      <point x="644" y="1682" type="curve"/>
      <point x="541" y="1682" type="line"/>
      <point x="562" y="1832"/>
      <point x="633" y="1901"/>
      <point x="733" y="1901" type="curve" smooth="yes"/>
      <point x="849" y="1901"/>
      <point x="959" y="1807"/>
      <point x="994" y="1807" type="curve" smooth="yes"/>
      <point x="996" y="1807" type="line"/>
      <point x="1034" y="1810"/>
      <point x="1044" y="1859"/>
      <point x="1053" y="1901" type="curve"/>
      <point x="1157" y="1901" type="line"/>
      <point x="1138" y="1764"/>
      <point x="1086" y="1682"/>
      <point x="987" y="1682" type="curve" smooth="yes"/>
      <point x="903" y="1682"/>
      <point x="783" y="1779"/>
      <point x="710" y="1779" type="curve" smooth="yes"/>
      <point x="708" y="1779" type="line"/>
      <point x="677" y="1778"/>
      <point x="655" y="1737"/>
    </contour>
  </outline>
</glyph>
<glyph name="uni1ef9" format="1">
  <advance width="991"/>
  <unicode hex="1EF9"/>
  <outline>
    <contour>
      <point x="301" y="1043" type="line"/>
      <point x="477" y="186" type="line"/>
      <point x="587" y="439"/>
      <point x="845" y="1044"/>
      <point x="846" y="1043" type="curve"/>
      <point x="997" y="1043" type="line"/>
      <point x="499" y="-64" type="line" smooth="yes"/>
      <point x="384" y="-321"/>
      <point x="272" y="-502"/>
      <point x="6" y="-502" type="curve" smooth="yes"/>
      <point x="-40" y="-502" type="line"/>
      <point x="-35" y="-351" type="line"/>
      <point x="-10" y="-351" type="line" smooth="yes"/>
      <point x="192" y="-351"/>
      <point x="226" y="-315"/>
      <point x="370" y="9" type="curve"/>
      <point x="150" y="1043" type="line"/>
    </contour>
    <contour>
      <point x="465" y="1291" type="curve"/>
      <point x="362" y="1291" type="line"/>
      <point x="383" y="1441"/>
      <point x="454" y="1510"/>
      <point x="554" y="1510" type="curve" smooth="yes"/>
      <point x="670" y="1510"/>
      <point x="780" y="1416"/>
      <point x="815" y="1416" type="curve" smooth="yes"/>
      <point x="817" y="1416" type="line"/>
      <point x="855" y="1419"/>
      <point x="865" y="1468"/>
      <point x="874" y="1510" type="curve"/>
      <point x="978" y="1510" type="line"/>
      <point x="959" y="1373"/>
      <point x="907" y="1291"/>
      <point x="808" y="1291" type="curve" smooth="yes"/>
      <point x="724" y="1291"/>
      <point x="604" y="1388"/>
      <point x="531" y="1388" type="curve" smooth="yes"/>
      <point x="529" y="1388" type="line"/>
      <point x="498" y="1387"/>
      <point x="476" y="1346"/>
    </contour>
  </outline>
</glyph>
<glyph name="endash" format="1">
  <advance width="1226"/>
  <unicode hex="2013"/>
  <outline>
    <contour>
      <point x="1202" y="675" type="line"/>
      <point x="1181" y="527" type="line"/>
      <point x="208" y="527" type="line"/>
      <point x="228" y="675" type="line"/>
    </contour>
  </outline>
</glyph>
<glyph name="quoteright" format="1">
  <advance width="477"/>
  <unicode hex="2019"/>
  <outline>
    <contour>
      <point x="394" y="1102" type="line"/>
      <point x="283" y="1102" type="line"/>
      <point x="438" y="1574" type="line"/>
      <point x="589" y="1574" type="line"/>
    </contour>
  </outline>
</glyph>
<glyph name="quotedblleft" format="1">
  <advance width="778"/>
  <unicode hex="201C"/>
  <outline>
    <contour>
      <point x="279" y="1102" type="line"/>
      <point x="474" y="1574" type="line"/>
      <point x="589" y="1574" type="line"/>
      <point x="432" y="1102" type="line"/>
    </contour>
    <contour>
      <point x="575" y="1102" type="line"/>
      <point x="771" y="1574" type="line"/>
      <point x="884" y="1574" type="line"/>
      <point x="731" y="1102" type="line"/>
    </contour>
  </outline>
</glyph>
<glyph name="dagger" format="1">
  <advance width="819"/>
  <unicode hex="2020"/>
  <outline>
    <contour>
      <point x="360" y="121" type="line"/>
      <point x="484" y="1007" type="line"/>
      <point x="210" y="1007" type="line"/>
      <point x="230" y="1149" type="line"/>
      <point x="504" y="1149" type="line"/>
      <point x="562" y="1561" type="line"/>
      <point x="687" y="1561" type="line"/>
      <point x="629" y="1149" type="line"/>
      <point x="917" y="1149" type="line"/>
      <point x="897" y="1007" type="line"/>
      <point x="592" y="1007" type="line"/>
      <point x="467" y="121" type="line"/>
    </contour>
  </outline>
</glyph>
<glyph name="foursuperior" format="1">
  <advance width="706"/>
  <unicode hex="2074"/>
  <outline>
    <contour>
      <point x="338" y="978" type="line"/>
      <point x="533" y="978" type="line"/>
      <point x="568" y="1230" type="line" smooth="yes"/>
      <point x="575" y="1282"/>
      <point x="579" y="1311"/>
      <point x="584" y="1339" type="curve"/>
    </contour>
    <contour>
      <point x="592" y="661" type="line"/>
      <point x="489" y="661" type="line"/>
      <point x="518" y="865" type="line"/>
      <point x="210" y="865" type="line"/>
      <point x="224" y="964" type="line"/>
      <point x="600" y="1519" type="line"/>
      <point x="714" y="1519" type="line"/>
      <point x="638" y="978" type="line"/>
      <point x="726" y="978" type="line"/>
      <point x="719" y="865" type="line"/>
      <point x="620" y="865" type="line"/>
    </contour>
  </outline>
</glyph>
<glyph name="radical" format="1">
  <advance width="1134"/>
  <unicode hex="221A"/>
  <outline>
    <contour>
      <point x="1206" y="1718" type="curve"/>
      <point x="1315" y="1718" type="line"/>
      <point x="637" y="-166" type="line"/>
      <point x="508" y="-166" type="line"/>
      <point x="326" y="743" type="line"/>
      <point x="180" y="712" type="line"/>
      <point x="182" y="833" type="line"/>
      <point x="432" y="889" type="line"/>
      <point x="564" y="230" type="line"/>
      <point x="592" y="44" type="line"/>
      <point x="796" y="602"/>
      <point x="1001" y="1160"/>
    </contour>
  </outline>
</glyph>
<glyph name="fi" format="1">
  <advance width="941"/>
  <unicode hex="FB01"/>
  <outline>
    <contour>
      <point x="156" y="0" type="line"/>
      <point x="286" y="925" type="line"/>
      <point x="148" y="925" type="line"/>
      <point x="165" y="1043" type="line"/>
      <point x="303" y="1043" type="line"/>
      <point x="359" y="1439"/>
      <point x="445" y="1536"/>
      <point x="679" y="1536" type="curve" smooth="yes"/>
      <point x="741" y="1536" type="line"/>
      <point x="740" y="1408" type="line"/>
      <point x="660" y="1408" type="line" smooth="yes"/>
      <point x="504" y="1408"/>
      <point x="486" y="1317"/>
      <point x="447" y="1043" type="curve"/>
      <point x="967" y="1043" type="line"/>
      <point x="820" y="0" type="line"/>
      <point x="677" y="0" type="line"/>
      <point x="807" y="925" type="line"/>
      <point x="430" y="925" type="line"/>
      <point x="300" y="0" type="line"/>
    </contour>
    <contour>
      <point x="887" y="1496" type="line"/>
      <point x="1030" y="1496" type="line"/>
      <point x="1003" y="1298" type="line"/>
      <point x="859" y="1298" type="line"/>
    </contour>
  </outline>
</glyph>
